<svg width="72" height="72" viewBox="0 0 72 72" fill="none" xmlns="http://www.w3.org/2000/svg">
<path d="M65.9072 70.6154C66.5996 70.6154 67.1534 70.0615 67.1534 69.3692L67.0149 50.8154C66.8765 40.0154 66.8765 43.2 66.738 32.2615C66.738 31.9846 66.5996 31.8462 66.4611 31.5692L60.2303 25.4769V24.0923L60.3688 18C60.3688 17.8615 60.3688 12.8769 60.3688 13.0154V12.4615C60.3688 12.1846 60.2303 11.7692 60.2303 11.4923C59.6765 9.55385 58.0149 8.03078 56.0765 7.61539C55.7996 7.61539 55.3842 7.47693 55.1072 7.47693H54.2765H48.1842H41.538C40.0149 5.53847 39.1842 4.15385 36.8303 1.66155C36.4149 1.24616 35.7226 1.1077 35.3072 1.52309C34.0611 2.63078 32.8149 3.87693 31.7072 4.84616C30.738 5.81539 29.7688 6.78462 28.7996 7.75385H23.6765H17.5842H16.7534C16.4765 7.75385 16.0611 7.75385 15.7842 7.89232C13.8457 8.3077 12.1842 9.83078 11.6303 11.7692C11.6303 12.0462 11.4919 12.3231 11.4919 12.7385V13.2923C11.4919 13.4308 11.4919 18.4154 11.4919 18.2769L11.6303 24.3692V25.7539L5.39955 31.8462C5.26109 31.9846 5.12263 32.2615 5.12263 32.5385C4.8457 54.6923 4.8457 47.3539 4.8457 69.5077C4.8457 70.2 5.39955 70.7539 6.09186 70.7539H35.9996L65.9072 70.6154ZM7.33801 68.1231L7.19955 50.8154L7.06109 33.0923C8.72263 34.3385 10.2457 35.4462 11.9072 36.6923C11.9072 36.9692 12.0457 37.1077 12.3226 37.2462C13.2919 37.8 14.1226 38.3539 15.0919 38.9077C21.738 43.4769 26.7226 46.6615 33.5072 50.9539C29.2149 53.7231 24.7842 56.3539 20.6303 59.2615C16.338 62.1692 12.0457 65.0769 7.89186 68.2616L7.33801 68.1231ZM57.0457 38.9077C58.0149 38.3539 58.8457 37.8 59.8149 37.2462C60.0919 37.1077 60.0919 36.8308 60.2303 36.6923C61.8919 35.5846 63.4149 34.3385 65.0765 33.0923L64.7996 50.8154L64.6611 67.9846H64.2457C60.0919 64.9385 55.7996 61.8923 51.5072 59.1231C47.2149 56.2154 42.9226 53.5846 38.6303 50.8154C45.4149 46.6615 50.2611 43.4769 57.0457 38.9077ZM64.938 32.8154V32.9539C63.2765 33.7846 61.7534 34.6154 60.0919 35.4462L60.2303 28.1077L64.938 32.8154ZM33.6457 6.78462C34.4765 5.95386 35.3072 4.98462 36.138 4.15385C38.2149 5.81539 38.7688 6.09232 40.9842 7.75385H35.9996H32.6765C32.9534 7.33847 33.3688 7.06155 33.6457 6.78462ZM13.8457 18.1385C13.8457 18 13.8457 13.2923 13.8457 13.5692V13.1539V12.8769C13.8457 12.7385 13.8457 12.4615 13.9842 12.3231C14.2611 11.3539 15.2303 10.5231 16.1996 10.3846H16.7534H17.5842H23.6765H35.8611C63.9688 10.2462 30.3226 10.3846 54.9688 10.2462H55.5226C56.7688 10.6615 57.5996 11.3539 57.8765 12.4615C57.8765 12.6 58.0149 12.7385 58.0149 13.0154V13.2923C58.0149 13.4308 58.0149 15.3692 58.0149 15.2308V18.2769L58.1534 24.3692L58.4303 36.1385C57.738 36.6923 56.9072 37.1077 56.2149 37.6615C54.2765 38.7692 52.338 39.7385 50.538 40.8462C45.6919 43.6154 40.9842 46.5231 36.138 49.2923C28.938 44.8615 23.3996 41.6769 15.9226 37.5231C15.2303 36.9692 14.3995 36.5539 13.7072 36L13.9842 24.2308L13.8457 18.1385ZM11.7688 35.3077C10.2457 34.4769 8.58417 33.6462 6.92263 32.8154V32.6769L11.6303 27.8308L11.7688 35.3077ZM8.4457 68.1231C12.8765 65.9077 17.3072 63.4154 21.5996 61.0615C26.4457 58.2923 31.1534 55.3846 35.9996 52.6154C40.8457 55.5231 45.5534 58.4308 50.3996 61.2C54.6919 63.6923 59.1226 66.0462 63.5534 68.2616L35.9996 67.9846L8.4457 68.1231Z" fill="#A42929"/>
<path d="M43.8918 17.0308C46.5225 16.8923 49.1533 16.4769 51.7841 15.9231C49.1533 15.3692 46.5225 15.0923 43.8918 14.8154C38.7687 14.4 33.7841 14.4 28.1072 14.8154C25.4764 14.9538 22.8456 15.3692 20.2148 15.9231C22.8456 16.4769 25.4764 16.7538 28.1072 17.0308C33.6456 17.4462 38.7687 17.4462 43.8918 17.0308Z" fill="#A42929"/>
<path d="M43.8918 25.3385C46.5225 25.2 49.1533 24.7846 51.7841 24.2308C49.1533 23.6769 46.5225 23.4 43.8918 23.1231C38.7687 22.7077 33.6456 22.7077 28.1072 23.1231C25.4764 23.2616 22.8456 23.6769 20.2148 24.2308C22.8456 24.7846 25.4764 25.0616 28.1072 25.3385C33.6456 25.7539 38.7687 25.6154 43.8918 25.3385Z" fill="#A42929"/>
<path d="M43.8918 33.5077C46.5225 33.3692 49.1533 32.9539 51.7841 32.4C49.1533 31.8462 46.5225 31.5692 43.8918 31.2923C38.7687 30.8769 33.6456 30.8769 28.1072 31.2923C25.4764 31.4308 22.8456 31.8462 20.2148 32.4C22.8456 32.9539 25.4764 33.2308 28.1072 33.5077C33.6456 33.9231 38.7687 33.9231 43.8918 33.5077Z" fill="#A42929"/>
</svg>
