<svg width="72" height="72" viewBox="0 0 72 72" fill="none" xmlns="http://www.w3.org/2000/svg">
<path d="M27.1388 64.6615L35.4465 70.3385C35.8618 70.7539 36.5541 70.7539 37.108 70.3385L45.1388 64.6615C47.6311 62.8615 50.1234 61.0615 52.6157 59.2615C58.1541 62.7231 63.6926 66.0462 69.3695 69.0923C64.108 64.9385 58.708 60.9231 53.1695 57.0462C52.8926 56.7692 52.3388 56.7692 52.0618 57.0462C49.2926 58.8462 46.5234 60.6462 43.7541 62.4462L36.4157 67.4308L28.8003 62.4462C26.0311 60.6462 23.1234 58.8462 20.3541 57.0462C20.0772 56.7692 19.5234 56.7692 19.2465 57.0462C13.4311 61.0615 8.03107 65.0769 2.76953 69.2308C8.44645 66.0462 13.9849 62.7231 19.5234 59.2615C22.0157 61.2 24.6465 62.8615 27.1388 64.6615Z" fill="#A42929"/>
<path d="M54.6927 10.9385C50.5389 4.98461 43.3389 1.38461 36.0004 1.38461C27.4158 1.38461 18.8312 6.0923 14.5389 15.7846C11.0773 24.7846 13.8466 29.4923 13.8466 30.4615L14.2619 31.7077C16.6158 38.3538 20.2158 44.3077 23.9542 50.1231C27.6927 55.9385 31.7081 61.4769 35.8619 66.8769C32.1235 61.0615 28.385 55.3846 25.0619 49.4308C23.4004 46.5231 21.7389 43.4769 20.2158 40.4308C18.6927 37.3846 17.3081 34.3385 16.3389 31.0154L15.9235 29.7692C15.9235 28.9385 13.5696 24.7846 16.7542 16.7538C20.9081 8.16923 28.385 4.15384 36.0004 4.15384C42.5081 4.15384 48.8773 7.33846 52.6158 12.6C59.1235 21.0462 55.9389 29.6308 55.9389 29.7692L55.5235 31.0154C54.5542 34.2 53.0312 37.2462 51.6466 40.2923C50.1235 43.3385 48.4619 46.3846 46.8004 49.2923C43.4773 55.2462 39.7389 61.0615 36.0004 66.7385C40.2927 61.3385 44.1696 55.6615 47.9081 49.9846C51.5081 44.1692 55.1081 38.2154 57.6004 31.5692L58.0158 30.3231C58.0158 30.1846 61.8927 20.7692 54.6927 10.9385Z" fill="#A42929"/>
<path d="M43.2005 17.4461C41.1236 15.6461 38.4928 14.8154 36.0005 15.0923C38.4928 15.3692 40.8467 16.6154 42.3697 18.4154C43.8928 20.2154 44.7236 22.4308 44.5851 24.7846C44.4467 27 43.4774 29.2154 41.9544 30.6C40.4313 32.1231 38.2159 32.9538 36.139 32.9538C33.9236 32.9538 31.8467 32.1231 30.3236 30.6C28.662 29.0769 27.8313 27 27.6928 24.7846C27.5544 22.5692 28.3851 20.2154 29.9082 18.4154C31.4313 16.6154 33.6467 15.3692 36.139 15.0923C33.6467 14.8154 30.8774 15.6461 28.939 17.4461C26.862 19.2461 25.6159 21.8769 25.4774 24.6461C25.339 27.4154 26.4467 30.3231 28.3851 32.4C30.3236 34.4769 33.2313 35.7231 36.139 35.7231C39.0467 35.7231 41.8159 34.4769 43.8928 32.4C45.8313 30.3231 46.939 27.5538 46.8005 24.6461C46.5236 21.8769 45.2774 19.2461 43.2005 17.4461Z" fill="#A42929"/>
</svg>
