<svg width="72" height="72" viewBox="0 0 72 72" fill="none" xmlns="http://www.w3.org/2000/svg">
<path d="M2.85252 21.6C8.82988 52.4378 37.2223 69.283 53.2525 69.6906C54.0676 69.6906 54.8827 69.5547 55.562 69.4189C57.0563 69.0113 58.4148 68.4679 59.7733 67.6528C62.2186 66.0227 64.3922 64.1208 66.1582 61.8113C67.9242 59.5019 69.2827 56.9208 69.8261 53.7962C70.0978 52.3019 69.8261 50.5359 68.8752 49.1774C68.0601 47.8189 66.7016 46.8679 65.4789 46.1887C62.8978 44.8302 60.1808 44.0151 57.4638 43.3359C56.1054 42.9283 54.7469 42.6566 53.2525 42.3849C51.894 42.2491 50.2639 42.1132 48.7695 42.5208C47.2752 42.9283 45.9167 44.0151 45.1016 45.2378C44.2865 46.4604 43.8789 47.9547 43.6072 49.3132C43.1997 51.8944 43.3355 54.4755 43.7431 56.9208C37.2223 54.4755 31.245 50.6717 26.0827 45.917C28.528 48.4981 31.3808 50.9434 34.3695 52.9811C37.3582 55.0189 40.6186 56.7849 44.1506 58.1434H44.4223C44.694 58.1434 44.8299 57.8717 44.8299 57.6C44.4223 54.883 44.4223 52.1661 44.9657 49.5849C44.9657 49.4491 44.9657 49.3132 45.1016 49.1774C47.0035 48.634 48.7695 48.7698 50.5355 49.1774C52.5733 49.5849 54.611 50.4 56.6488 50.9434C58.6865 51.6227 60.8601 52.1661 62.762 52.9811C64.2563 53.6604 65.7506 54.3396 66.9733 55.6981C66.294 57.3283 65.3431 58.9585 64.2563 60.317C62.6261 62.3547 60.7242 64.2566 58.5506 65.6151C57.4638 66.2944 56.2412 66.8378 55.1544 67.1095C54.611 67.2453 53.9318 67.3811 53.3884 67.2453C38.0374 66.7019 11.2752 50.1283 5.2978 20.9208C5.2978 20.7849 5.2978 20.7849 5.16195 20.6491C4.21101 18.6113 5.02611 15.7585 6.24875 13.8566C7.47139 11.683 9.37328 9.6453 11.411 8.01511C12.9054 6.79247 14.5355 5.70567 16.3016 5.02643C17.5242 6.11322 18.3393 7.60756 19.0186 9.23775C19.8337 11.1396 20.3771 13.3132 21.0563 15.351C21.7355 17.3887 22.4148 19.4264 22.8223 21.4642C23.2299 23.2302 23.5016 25.1321 22.8223 26.8981C22.6865 26.8981 22.6865 26.8981 22.5506 27.034C19.9695 27.5774 17.1167 27.5774 14.5355 27.1698C14.3997 27.1698 14.3997 27.1698 14.2638 27.1698C13.9921 27.3057 13.8563 27.5774 13.9921 27.8491C16.7091 34.6415 20.9204 40.8906 26.2186 45.917C21.4638 40.7547 17.6601 34.7774 15.2148 28.2566C17.6601 28.6642 20.2412 28.8 22.8223 28.2566C24.1808 27.9849 25.6752 27.5774 26.8978 26.6264C28.1204 25.8113 29.2072 24.4528 29.4789 22.8227C29.8865 21.3283 29.7506 19.834 29.6148 18.3396C29.3431 16.8453 29.0714 15.4868 28.6638 14.1283C27.8488 11.4113 27.1695 8.69435 25.6752 6.11322C24.9959 4.89058 23.9091 3.53209 22.5506 2.71699C21.0563 1.9019 19.2903 1.76605 17.7959 2.03775C14.8072 2.98869 12.2261 4.48303 9.91667 6.24907C7.60724 8.01511 5.5695 10.1887 4.07516 12.634C2.44497 15.351 1.76573 18.7472 2.85252 21.6ZM66.4299 53.5245C65.6148 52.5736 64.6639 51.7585 63.7129 51.2151C61.6752 49.9925 59.5016 49.1774 57.4638 48.4981C55.2903 47.8189 53.1167 47.2755 50.8072 47.1396C49.5846 47.1396 48.362 47.1396 47.2752 47.5472C46.5959 47.8189 45.7808 48.0906 45.2374 48.634C45.5091 47.683 45.9167 46.7321 46.4601 46.0528C47.1393 44.9661 48.0903 44.2868 49.3129 44.0151C51.7582 43.4717 54.4752 44.151 57.0563 44.966C59.6374 45.7811 62.3544 46.5962 64.528 47.8189C65.6148 48.4981 66.7016 49.1774 67.245 50.2642C67.7884 51.2151 67.9242 52.4378 67.7884 53.5245C67.6525 53.9321 67.6525 54.4755 67.5167 54.883C66.9733 54.4755 66.7016 53.9321 66.4299 53.5245ZM18.2035 4.48303C19.4261 4.21133 20.6487 4.34718 21.5997 4.89058C22.5506 5.43398 23.3657 6.38492 24.045 7.47171C25.4035 9.6453 26.2186 12.3623 27.0337 14.9434C27.8487 17.5245 28.528 20.2415 27.9846 22.6868C27.7129 23.9094 27.0337 24.8604 25.9469 25.6755C25.1318 26.2189 24.1808 26.6264 23.2299 26.8981C23.6374 26.3547 24.045 25.5396 24.3167 24.8604C24.7242 23.6377 24.7242 22.551 24.7242 21.3283C24.5884 19.0189 24.045 16.7094 23.3657 14.6717C22.6865 12.4981 21.8714 10.3245 20.6487 8.42266C19.9695 7.47171 19.2903 6.52077 18.3393 5.70567C17.9318 5.43398 17.5242 5.16228 16.9808 4.89058C17.3884 4.61888 17.7959 4.61888 18.2035 4.48303Z" fill="#A42929"/>
<path d="M67.7885 16.0302C68.196 15.6227 68.6036 15.0793 68.7394 14.5359C68.8753 13.9925 68.8753 13.3132 68.7394 12.634C68.6036 12.0906 68.196 11.5472 67.7885 11.1396L66.5659 10.0528L64.1206 7.87926L66.2942 10.3245L67.381 11.5472C67.6526 11.9547 67.9243 12.3623 67.9243 12.7698C68.0602 13.7208 67.7885 14.6717 66.9734 15.2151L64.5281 17.3887C61.4036 20.3774 58.1432 23.3661 55.0187 26.3547C54.6111 26.7623 54.6111 27.4415 55.0187 27.8491L57.464 30.4302C57.7357 30.7019 57.7357 30.7019 57.7357 30.8378V31.1094C57.7357 31.3811 57.5998 31.517 57.464 31.6528C57.464 31.6528 56.6489 31.7887 56.1055 31.9245C54.2036 32.1962 50.6715 32.7396 50.8074 32.6038L43.7432 33.6906L40.2111 34.234L38.4451 34.5057C38.1734 34.5057 38.1734 34.5057 38.0376 34.3698C38.0376 34.234 38.0376 34.0981 38.0376 33.8264C38.3093 31.7887 38.8526 28.3925 38.8526 28.5283L39.9394 21.4642L40.4828 17.9321L40.7545 16.1661C40.8904 15.6227 40.8904 14.8076 41.0262 14.8076C41.1621 14.6717 41.2979 14.5359 41.5696 14.5359H41.8413C41.9772 14.5359 41.9772 14.5359 42.2489 14.8076C42.3847 14.9434 44.9659 17.5245 44.83 17.2528C45.2376 17.6604 45.9168 17.6604 46.1885 17.2528C49.0413 14.2642 52.03 11.1396 54.8828 8.01511L57.0564 5.70567C57.464 5.29813 57.7357 4.89058 58.1432 4.61888C58.5508 4.34718 58.9583 4.21134 59.3659 4.21134C59.7734 4.21134 60.3168 4.34718 60.7243 4.61888C61.1319 4.89058 61.5394 5.29813 61.947 5.56983L64.2564 7.60756L61.947 5.43398C61.5394 5.02643 61.2677 4.61888 60.8602 4.21134C59.7734 3.53209 58.4149 3.53209 57.464 4.07549C56.9206 4.34718 56.513 4.75473 56.1055 5.16228L53.796 7.33586C50.9432 9.917 48.2262 12.634 45.3734 15.2151L43.6074 13.3132C43.4715 13.1774 43.064 12.7698 42.6564 12.4981C42.2489 12.2264 41.7055 12.2264 41.2979 12.2264C40.347 12.2264 39.396 12.7698 38.8526 13.7208C38.7168 13.9925 38.5809 14.1283 38.5809 14.4L38.4451 14.6717V14.9434C38.4451 15.2151 37.3583 21.3283 37.3583 21.0566L36.2715 28.1208C36.2715 28.3925 35.3206 33.6906 35.4564 33.4189C35.3206 33.8264 35.3206 34.3698 35.5923 34.9132C35.864 35.8642 36.6791 36.6793 37.7659 37.0868C38.1734 37.2227 38.8526 37.2227 39.2602 37.2227C39.396 37.2227 44.83 36.4076 44.5583 36.4076L51.6225 35.3208C51.7583 35.3208 57.1923 34.3698 56.9206 34.3698L57.7357 34.234H58.0074L58.4149 34.0981C58.6866 34.0981 58.8225 33.9623 59.0942 33.8264C59.9093 33.283 60.5885 32.3321 60.5885 31.3811C60.5885 30.8378 60.4527 30.4302 60.3168 29.8868C60.181 29.4793 59.6376 29.0717 59.5017 28.9359L57.3281 27.1698C60.0451 24.317 62.8979 21.3283 65.6149 18.4755L67.7885 16.0302Z" fill="#A42929"/>
</svg>
