<svg width="12" height="13" viewBox="0 0 12 13" fill="none" xmlns="http://www.w3.org/2000/svg">
<path d="M3.40137 2.07642C3.40217 -0.035533 8.62516 -0.0153871 8.62598 2.07642C8.62598 2.91175 8.25531 3.85773 7.79395 4.71313C8.64754 4.25349 9.59073 3.88503 10.4238 3.88501C12.5364 3.88501 12.5163 9.1106 10.4238 9.1106C9.58302 9.11058 8.6303 8.73536 7.77051 8.26978C8.23609 9.12955 8.61127 10.0823 8.61133 10.9231C8.61133 13.0357 3.38574 13.0155 3.38574 10.9231C3.3858 10.0834 3.75985 9.13162 4.22461 8.27271C3.36621 8.73694 2.41522 9.1106 1.57617 9.1106C-0.515632 9.10979 -0.535778 3.88581 1.57617 3.88501C2.42079 3.88501 3.37934 4.26317 4.24219 4.73169C3.7763 3.87157 3.40137 2.91762 3.40137 2.07642Z" fill="#BABABA"/>
</svg>
