<svg width="48" height="48" viewBox="0 0 48 48" fill="none" xmlns="http://www.w3.org/2000/svg">
<path d="M42.6 20.16C42.038 19.4853 41.3348 18.9422 40.54 18.569C39.7451 18.1957 38.8781 18.0015 38 18H28.88L30 15.14C30.4659 13.8878 30.621 12.5412 30.4521 11.2159C30.2832 9.8905 29.7954 8.62588 29.0304 7.53049C28.2654 6.43509 27.2461 5.54162 26.0599 4.92671C24.8737 4.31181 23.5561 3.99382 22.22 4.00003C21.8353 4.00083 21.459 4.11258 21.1361 4.32187C20.8133 4.53117 20.5577 4.82913 20.4 5.18003L14.7 18H10C8.4087 18 6.88258 18.6322 5.75736 19.7574C4.63214 20.8826 4 22.4087 4 24V38C4 39.5913 4.63214 41.1175 5.75736 42.2427C6.88258 43.3679 8.4087 44 10 44H35.46C36.8636 43.9996 38.2227 43.507 39.3006 42.6081C40.3786 41.7091 41.1073 40.4607 41.36 39.08L43.9 25.08C44.0571 24.2148 44.0221 23.3256 43.7974 22.4754C43.5728 21.6252 43.164 20.8347 42.6 20.16ZM14 40H10C9.46957 40 8.96086 39.7893 8.58579 39.4142C8.21071 39.0392 8 38.5305 8 38V24C8 23.4696 8.21071 22.9609 8.58579 22.5858C8.96086 22.2107 9.46957 22 10 22H14V40ZM40 24.36L37.46 38.36C37.3748 38.8259 37.127 39.2465 36.7608 39.5468C36.3945 39.8472 35.9336 40.0078 35.46 40H18V20.42L23.44 8.18003C24 8.34328 24.52 8.62084 24.9673 8.99519C25.4146 9.36955 25.7794 9.83256 26.0388 10.355C26.2981 10.8775 26.4464 11.448 26.4741 12.0306C26.5019 12.6132 26.4085 13.1953 26.2 13.74L25.14 16.6C24.9141 17.2045 24.8379 17.8547 24.9177 18.4951C24.9976 19.1355 25.2312 19.747 25.5987 20.2775C25.9661 20.808 26.4564 21.2418 27.0278 21.5417C27.5992 21.8417 28.2347 21.9989 28.88 22H38C38.2938 21.9996 38.5841 22.0638 38.8503 22.1883C39.1165 22.3127 39.352 22.4943 39.54 22.72C39.7327 22.9427 39.8738 23.2051 39.9533 23.4886C40.0328 23.7721 40.0488 24.0697 40 24.36Z" fill="#1A1A1A"/>
</svg>
