<svg width="16" height="17" viewBox="0 0 16 17" fill="none" xmlns="http://www.w3.org/2000/svg">
<path d="M12.9601 9.16667C12.8134 9.16667 12.6601 9.12 12.5134 9.08667C12.2164 9.02122 11.9245 8.93432 11.6401 8.82667C11.3308 8.71415 10.9908 8.72 10.6856 8.84307C10.3804 8.96615 10.1315 9.19776 9.98673 9.49333L9.84007 9.79333C9.19074 9.43212 8.59406 8.98349 8.06673 8.46C7.54325 7.93268 7.09462 7.336 6.7334 6.68667L7.0134 6.5C7.30898 6.35528 7.54059 6.10635 7.66366 5.80113C7.78674 5.4959 7.79258 5.15594 7.68007 4.84667C7.57422 4.56161 7.48736 4.26987 7.42007 3.97333C7.38673 3.82667 7.36007 3.67333 7.34007 3.52C7.25911 3.05041 7.01315 2.62516 6.64648 2.32083C6.27981 2.01649 5.81653 1.85307 5.34007 1.86H3.34007C3.05275 1.8573 2.76823 1.91654 2.50587 2.03369C2.24351 2.15083 2.00947 2.32313 1.81969 2.53885C1.6299 2.75458 1.48882 3.00866 1.40606 3.28381C1.32329 3.55896 1.30079 3.84871 1.34007 4.13333C1.69523 6.92625 2.97075 9.52125 4.96517 11.5084C6.95958 13.4956 9.55921 14.7617 12.3534 15.1067H12.6067C13.0983 15.1074 13.573 14.927 13.9401 14.6C14.151 14.4114 14.3195 14.1801 14.4344 13.9215C14.5493 13.663 14.608 13.383 14.6067 13.1V11.1C14.5986 10.6369 14.4299 10.191 14.1296 9.83844C13.8293 9.48585 13.4159 9.24842 12.9601 9.16667ZM13.2934 13.1667C13.2933 13.2613 13.273 13.3549 13.2339 13.4411C13.1948 13.5273 13.1378 13.6042 13.0667 13.6667C12.9925 13.7313 12.9054 13.7796 12.8112 13.8083C12.717 13.8371 12.6178 13.8456 12.5201 13.8333C10.0233 13.5132 7.70423 12.371 5.92854 10.5869C4.15286 8.80273 3.02167 6.47822 2.7134 3.98C2.70279 3.88235 2.71209 3.78355 2.74074 3.68959C2.76938 3.59563 2.81678 3.50846 2.88007 3.43333C2.94254 3.36222 3.01944 3.30523 3.10565 3.26614C3.19186 3.22706 3.28541 3.20679 3.38007 3.20667H5.38007C5.5351 3.20322 5.68648 3.25392 5.80816 3.35005C5.92984 3.44617 6.01421 3.58171 6.04673 3.73333C6.0734 3.91556 6.10673 4.09556 6.14673 4.27333C6.22375 4.62476 6.32624 4.97012 6.4534 5.30667L5.52007 5.74C5.44027 5.77661 5.36848 5.82863 5.30884 5.89306C5.2492 5.9575 5.20287 6.03308 5.17251 6.11546C5.14216 6.19785 5.12838 6.28542 5.13197 6.37315C5.13555 6.46088 5.15643 6.54703 5.1934 6.62667C6.15287 8.68184 7.8049 10.3339 9.86007 11.2933C10.0224 11.36 10.2044 11.36 10.3667 11.2933C10.4499 11.2636 10.5263 11.2176 10.5915 11.1581C10.6567 11.0986 10.7095 11.0267 10.7467 10.9467L11.1601 10.0133C11.5047 10.1366 11.8565 10.239 12.2134 10.32C12.3912 10.36 12.5712 10.3933 12.7534 10.42C12.905 10.4525 13.0406 10.5369 13.1367 10.6586C13.2328 10.7803 13.2835 10.9316 13.2801 11.0867L13.2934 13.1667Z" fill="white"/>
</svg>
