<svg width="32" height="60" viewBox="0 0 32 60" fill="none" xmlns="http://www.w3.org/2000/svg">
<path d="M31.4019 49.0271C31.4019 52.1552 29.8383 54.766 26.7112 56.8596C23.5877 58.9532 19.9094 60 15.6762 60C11.4429 60 7.77194 58.9532 4.66317 56.8596C1.55439 54.766 0 52.1552 0 49.0271C0 45.5542 1.93472 42.7217 5.80416 40.5295V7.27832C5.80416 5.23398 6.77977 3.50984 8.731 2.1059C10.6823 0.701967 13.0304 0 15.7754 0C18.5203 0 20.8427 0.708815 22.7425 2.12645C24.646 3.54133 25.5977 5.27094 25.5977 7.31528V40.5295C29.4672 42.7217 31.4019 45.5542 31.4019 49.0271ZM23.7126 48.6576C23.7126 46.8842 22.7205 45.431 20.7361 44.298V7.13053C20.7361 6.09606 20.2474 5.20936 19.2699 4.47044C18.2962 3.73153 17.1148 3.36208 15.7258 3.36208C14.3367 3.36208 13.1369 3.72605 12.1264 4.45401C11.1195 5.17926 10.6161 6.05912 10.6161 7.0936V44.298C8.6318 45.4064 7.63965 46.8596 7.63965 48.6576C7.63965 50.2586 8.43337 51.5887 10.0208 52.6478C11.6083 53.7069 13.4934 54.2365 15.6762 54.2365C17.8589 54.2365 19.744 53.7069 21.3314 52.6478C22.9189 51.5887 23.7126 50.2586 23.7126 48.6576ZM21.5299 48.6576C21.5299 49.8399 20.9511 50.8196 19.7936 51.5969C18.6361 52.3714 17.2636 52.7586 15.6762 52.7586C14.0887 52.7586 12.7162 52.3714 11.5587 51.5969C10.4012 50.8196 9.8224 49.8399 9.8224 48.6576C9.8224 47.4261 10.5996 46.3793 12.154 45.5172V23.867H19.2479V45.5172C20.7692 46.3793 21.5299 47.4261 21.5299 48.6576Z" fill="black"/>
</svg>
